# AST/ASF file generated using VICON BodyLanguage
# -----------------------------------------------
:version 1.10
:name VICON
:units
  mass 1.0
  length 0.45
  angle deg
:documentation
   .ast/.asf automatically generated from VICON data using
   VICON BodyBuilder and BodyLanguage model FoxedUp or BRILLIANT.MOD
:root
   order TX TY TZ RX RY RZ
   axis XYZ
   position 0 0 0  
   orientation 0 0 0 
:bonedata
  begin
     id 1 
     name lhipjoint
     direction 0.643272 -0.706573 0.294883 
     length 2.58915 
     axis 0 0 0  XYZ
  end
  begin
     id 2 
     name lfemur
     direction 0.34202 -0.939693 0  
     length 7.06802  
     axis 0 0 20  XYZ
    dof rx ry rz
    limits (-160.0 20.0)
           (-70.0 70.0)
           (-60.0 70.0)
  end
  begin
     id 3 
     name ltibia
     direction 0.34202 -0.939693 0   
     length 7.94147   
     axis 0 0 20   XYZ
    dof rx
    limits (-10.0 170.0)
  end
  begin
     id 4 
     name lfoot
     direction 0.0435058 -0.119531 0.991877   
     length 1.8399   
     axis -90 7.62852e-016 20   XYZ
    dof rx rz
    limits (-45.0 90.0)
           (-70.0 20.0)
  end
  begin
     id 5 
     name ltoes
     direction 1.53505e-011 -4.22157e-011 1   
     length 0.934412   
     axis -90 7.62852e-016 20   XYZ
    dof rx
    limits (-90.0 20.0)
  end
  begin
     id 6 
     name rhipjoint
     direction -0.636801 -0.711547 0.296959   
     length 2.57105  
     axis 0 0 0  XYZ 
  end
  begin
     id 7 
     name rfemur
     direction -0.34202 -0.939693 0   
     length 7.03285   
     axis 0 0 -20   XYZ
    dof rx ry rz
    limits (-160.0 20.0)
           (-70.0 70.0)
           (-70.0 60.0)
  end
  begin
     id 8 
     name rtibia
     direction -0.34202 -0.939693 0   
     length 7.99111   
     axis 0 0 -20   XYZ
    dof rx
    limits (-10.0 170.0)
 end
 begin
     id 9 
     name rfoot
     direction -0.0783088 -0.215152 0.973436   
     length 1.98785  
     axis -90 -7.62852e-016 -20   XYZ
    dof rx rz
    limits (-45.0 90.0)
           (-20.0 70.0)
  end
  begin
     id 10 
     name rtoes
     direction -1.53606e-011 -4.21943e-011 1   
     length 1.001   
     axis -90 -7.62852e-016 -20   XYZ
    dof rx
    limits (-90.0 20.0)
  end
  begin
     id 11 
     name lowerback
     direction 0.00141527 0.998403 -0.0564763   
     length 2.30486   
     axis 0 0 0   XYZ
    dof rx ry rz
    limits (-20.0 45.0)
           (-30.0 30.0)
           (-30.0 30.0)
  end
  begin
     id 12 
     name upperback
     direction 0.0125137 0.999915 0.00361315   
     length 2.30697   
     axis 0 0 0   XYZ
    dof rx ry rz
    limits (-20.0 45.0)
           (-30.0 30.0)
           (-30.0 30.0)
  end
  begin
     id 13 
     name thorax
     direction 0.0136417 0.999471 0.0295116   
     length 2.31005   
     axis 0 0 0   XYZ
    dof rx ry rz
    limits (-20.0 45.0)
           (-30.0 30.0)
           (-30.0 30.0)
  end
  begin
     id 14 
     name lowerneck
     direction 0.0766806 0.997047 0.00422047   
     length 1.68825   
     axis 0 0 0   XYZ
    dof rx ry rz
    limits (-20.0 45.0)
           (-30.0 30.0)
           (-30.0 30.0)
  end
  begin
     id 15 
     name upperneck
     direction -0.143512 0.985106 -0.0947088   
     length 1.69772   
     axis 0 0 0   XYZ
    dof rx ry rz
    limits (-20.0 45.0)
           (-30.0 30.0)
           (-30.0 30.0)
  end
  begin
     id 16
     name head
     direction -0.0539128 0.997849 -0.0372864  
     length 1.71187  
     axis 0 0 0   XYZ
    dof rx ry rz
    limits (-20.0 45.0)
           (-30.0 30.0)
           (-30.0 30.0)
  end
  begin
     id 17 
     name lclavicle
     direction 0.978251 0.207416 -0.00165765  
     length 3.35399  
     axis 0 0 0   XYZ
    dof ry rz
    limits (-20.0 10.0)
           (0.0 20.0)
  end
  begin
     id 18 
     name lhumerus
     direction 1 -4.48966e-011 -1.32191e-028   
     length 5.70706   
     axis 180 -30 -90   XYZ
    dof rx ry rz
    limits (-60.0 90.0)
           (-90.0 90.0)
           (-90.0 90.0)
  end
  begin
     id 19
     name lradius
     direction 1 -4.48976e-011 9.36106e-027   
     length 3.33243   
     axis 180 -30 -90   XYZ
    dof rx
    limits (-10.0 170.0)
  end
  begin
     id 20
     name lwrist
     direction 1 -4.48976e-011 1.1555e-026   
     length 1.66621   
     axis -5.7412e-015 90 90   XYZ
    dof ry
    limits (-180.0 0.0)
 end
  begin
     id 21 
     name lhand
     direction 1 -4.48939e-011 2.31113e-026   
     length 0.792687   
     axis -1.47463e-014 90 90   XYZ
    dof rx rz
    limits (-90.0 90.0)
           (-45.0 45.0)
  end
  begin
     id 22 
     name lfingers
     direction 1 -4.48866e-011 4.62274e-026   
     length 0.639085   
     axis -2.94925e-014 90 90   XYZ
    dof rx
    limits (0.0 90.0)
  end
  begin
     id 23
     name lthumb
     direction 0.707107 -6.34847e-011 0.707107   
     length 0.917601   
     axis -90 45 -6.68868e-015   XYZ
    dof rx rz
    limits (-45.0 45.0)
           (-45.0 45.0)
  end
  begin
     id 24 
     name rclavicle
     direction -0.981813 0.185514 0.0403428   
     length 3.47271  
     axis 0 0 0   XYZ 
    dof ry rz
    limits (-10.0 20.0)
           (-20.0 0.0)
  end
  begin
     id 25 
     name rhumerus
     direction -1 -4.48972e-011 -6.58544e-029  
     length 5.88176   
     axis 180 30 90   XYZ
    dof rx ry rz
    limits (-90.0 60.0)
           (-90.0 90.0)
           (-90.0 90.0)
  end
  begin
     id 26 
     name rradius
     direction -1 -4.48964e-011 8.36306e-027   
     length 3.28156   
     axis 180 30 90   XYZ
    dof rx
    limits (-10.0 170.0)
  end
  begin
     id 27 
     name rwrist
     direction -1 -4.48903e-011 1.15562e-026   
     length 1.64078   
     axis -5.7412e-015 -90 -90   XYZ
    dof ry
    limits (-180.0 0.0)
  end
  begin
     id 28
     name rhand
     direction -1 -4.49055e-011 2.31074e-026   
     length 0.863125   
     axis -1.47463e-014 -90 -90   XYZ
    dof rx rz
    limits (-90.0 90.0)
           (-45.0 45.0)
  end
  begin
     id 29
     name rfingers
     direction -1 -4.48994e-011 4.62188e-026   
     length 0.695873   
     axis -2.94925e-014 -90 -90   XYZ
    dof rx
    limits (0.0 90.0)
  end
  begin
     id 30
     name rthumb
     direction -0.707107 -6.35058e-011 0.707107   
     length 0.999139   
     axis -90 -45 6.68868e-015   XYZ
    dof rx rz
    limits (-45.0 45.0)
           (-45.0 45.0)
  end
:hierarchy
  begin
    root lhipjoint rhipjoint lowerback
    lhipjoint lfemur
    lfemur ltibia
    ltibia lfoot
    lfoot ltoes
    rhipjoint rfemur
    rfemur rtibia
    rtibia rfoot
    rfoot rtoes
    lowerback upperback
    upperback thorax
    thorax lowerneck lclavicle rclavicle
    lowerneck upperneck
    upperneck head
    lclavicle lhumerus
    lhumerus lradius
    lradius lwrist
    lwrist lhand lthumb
    lhand lfingers
    rclavicle rhumerus
    rhumerus rradius
    rradius rwrist
    rwrist rhand rthumb
    rhand rfingers
  end

#!OML:ASF \\Waltz\H\Terrain\Patient Classification 1\Animal2\Wednesday\Animal2.ASF
:FULLY-SPECIFIED
:DEGREES
682
root -0.553702 17.2945 -12.2163 -2.34852 11.6274 -18.7658
lowerback 3.81603 -2.65371 5.3885
upperback -0.386147 -3.09435 7.42368
thorax -2.41959 -1.56399 4.87671
lowerneck -3.07022 -12.3742 9.34584
upperneck 1.04878 -16.7837 -4.06328
head -0.330855 -8.40031 -2.775
rclavicle 2.67738e-014 -1.23246e-014
rhumerus 19.2014 37.4604 -51.6842
rradius 95.0274
rwrist -5.59398
rhand -16.9104 23.5727
rfingers 7.12502
rthumb 9.32177 -6.20123
lclavicle 2.67738e-014 -1.23246e-014
lhumerus 32.4436 25.7646 23.5845
lradius 88.9323
lwrist 0.972522
lhand -52.2181 26.6776
lfingers 7.12502
lthumb -24.7165 55.1009
rfemur -0.469673 -6.04473 32.0065
rtibia 20.0045
rfoot -5.11016 25.9921
rtoes 47.8122
lfemur -29.7851 -7.28679 7.20465
ltibia 60.1777
lfoot -17.4707 -8.17501
ltoes -22.6642
683
root -0.565102 17.291 -12.2123 -2.40199 11.2403 -19.0586
lowerback 4.0506 -2.63279 5.67094
upperback -0.395475 -3.02286 7.54751
thorax -2.57326 -1.53167 4.8608
lowerneck -3.06084 -12.2293 9.15369
upperneck 0.955509 -16.5842 -4.05133
head -0.330884 -8.30287 -2.74394
rclavicle -9.53856e-015 1.61016e-014
rhumerus 19.3621 37.6636 -51.6716
rradius 95.1694
rwrist -5.3615
rhand -17.1739 23.203
rfingers 7.12502
rthumb 9.06752 -6.58211
lclavicle -9.53856e-015 1.61016e-014
lhumerus 32.3097 25.8314 23.6477
lradius 88.8071
lwrist 1.11949
lhand -52.3455 26.5448
lfingers 7.12502
lthumb -24.8386 54.9514
rfemur -0.313698 -6.14674 32.3281
rtibia 19.7252
rfoot -4.12477 26.1789
rtoes 48.4561
lfemur -29.8245 -6.78597 7.67983
ltibia 60.3504
lfoot -18.0128 -7.86406
ltoes -24.8344
684
root -0.571286 17.2881 -12.2084 -2.37983 10.8005 -19.3697
lowerback 4.14539 -2.55474 5.96871
upperback -0.438612 -2.88459 7.67414
thorax -2.68642 -1.46625 4.82822
lowerneck -2.77486 -12.1155 9.08733
upperneck 0.751611 -16.406 -4.11691
head -0.433187 -8.21605 -2.72982
rclavicle -1.75676e-014 -6.0033e-014
rhumerus 19.376 37.8437 -51.672
rradius 95.2535
rwrist -5.2184
rhand -17.8678 22.7976
rfingers 7.12502
rthumb 8.39789 -7.01541
lclavicle -1.75676e-014 -6.0033e-014
lhumerus 32.1798 25.8163 23.8264
lradius 88.775
lwrist 1.16317
lhand -52.3711 26.0498
lfingers 7.12502
lthumb -24.8632 54.453
rfemur -0.203479 -6.18936 32.668
rtibia 19.4201
rfoot -3.2226 26.235
rtoes 48.4795
lfemur -29.837 -6.17789 8.1634
ltibia 60.413
lfoot -18.4396 -7.43932
ltoes -25.7219
685
root -0.565306 17.2937 -12.1852 -2.30775 10.5282 -19.4608
lowerback 3.99523 -2.53063 6.15034
upperback -0.486884 -2.85479 7.70369
thorax -2.66101 -1.45364 4.75023
lowerneck -2.68001 -12.0177 9.13877
upperneck 0.887073 -16.2675 -4.34437
head -0.42202 -8.14556 -2.81289
rclavicle -5.87036e-016 -3.77691e-015
rhumerus 19.371 37.932 -51.8621
rradius 95.1518
rwrist -5.11466
rhand -18.2725 22.4103
rfingers 7.12502
rthumb 8.00734 -7.41797
lclavicle -5.87036e-016 -3.77691e-015
lhumerus 31.9828 25.6715 23.958
lradius 88.8166
lwrist 1.24577
lhand -52.5235 25.8292
lfingers 7.12502
lthumb -25.0092 54.2122
rfemur -0.0926566 -6.53751 32.6753
rtibia 19.2404
rfoot -2.29122 26.6308
rtoes 49.2116
lfemur -29.7312 -5.84877 8.32154
ltibia 60.3034
lfoot -19.1575 -6.57442
ltoes -27.0281
686
root -0.558496 17.302 -12.1608 -2.30049 10.2614 -19.2439
lowerback 3.88937 -2.41748 6.0187
upperback -0.495779 -2.72516 7.57893
thorax -2.61465 -1.38777 4.67692
lowerneck -2.65637 -12.0475 9.43409
upperneck 1.10042 -16.3111 -4.6328
head -0.413046 -8.16524 -2.95585
rclavicle -1.52878e-014 3.73715e-014
rhumerus 19.0967 37.7206 -52.3135
rradius 94.9435
rwrist -4.86291
rhand -18.3997 22.1183
rfingers 7.12502
rthumb 7.8846 -7.71471
lclavicle -1.52878e-014 3.73715e-014
lhumerus 32.163 25.3434 24.2896
lradius 88.7862
lwrist 1.14774
lhand -52.4638 25.8587
lfingers 7.12502
lthumb -24.952 54.2496
rfemur 0.11028 -6.78876 32.3478
rtibia 19.1609
rfoot -1.55739 27.0475
rtoes 50.1311
lfemur -29.4376 -5.67848 8.09497
ltibia 60.0351
lfoot -19.9987 -5.23917
ltoes -29.1542
687
root -0.552931 17.3007 -12.1494 -2.20357 9.93696 -19.0684
lowerback 3.84477 -2.32477 5.92384
upperback -0.552999 -2.60806 7.49906
thorax -2.65249 -1.32925 4.63743
lowerneck -2.45992 -12.0222 9.55918
upperneck 1.13315 -16.262 -4.78953
head -0.457994 -8.13922 -3.01364
rclavicle 1.1719e-014 5.48646e-014
rhumerus 18.5927 37.5467 -53.0141
rradius 94.7127
rwrist -4.38646
rhand -18.4343 22.105
rfingers 7.12502
rthumb 7.85117 -7.72922
lclavicle 1.1719e-014 5.48646e-014
lhumerus 32.1794 25.074 24.4798
lradius 88.7388
lwrist 1.03734
lhand -52.2023 25.8726
lfingers 7.12502
lthumb -24.7014 54.298
rfemur 0.133249 -6.7503 32.1364
rtibia 19.1119
rfoot -1.06985 27.1755
rtoes 50.6139
lfemur -29.2606 -5.3825 7.95481
ltibia 59.6761
lfoot -20.6324 -3.76906
ltoes -31.0473
688
root -0.544139 17.2969 -12.1379 -1.92709 9.65082 -19.0758
lowerback 3.6248 -2.41481 6.0271
upperback -0.596476 -2.74296 7.5936
thorax -2.56938 -1.39756 4.67879
lowerneck -2.48892 -11.7437 9.31394
upperneck 1.16943 -15.8866 -4.92385
head -0.405146 -7.9535 -3.03596
rclavicle -1.80723e-014 -2.78299e-015
rhumerus 18.5838 37.7029 -53.5182
rradius 94.4103
rwrist -4.02795
rhand -18.5399 21.9889
rfingers 7.12502
rthumb 7.74922 -7.84911
lclavicle -1.80723e-014 -2.78299e-015
lhumerus 31.6068 25.1728 24.3063
lradius 88.7483
lwrist 1.05201
lhand -52.101 26.1671
lfingers 7.12502
lthumb -24.6044 54.6058
rfemur -0.0899988 -6.62975 32.1566
rtibia 19.0739
rfoot -0.877612 27.141
rtoes 50.5671
lfemur -29.2743 -5.00652 8.06909
ltibia 59.2426
lfoot -21.1791 -2.49751
ltoes -32.7713
689
root -0.532319 17.3013 -12.1205 -1.75233 9.40139 -19.0859
lowerback 3.44539 -2.49879 6.08611
upperback -0.591475 -2.87224 7.70113
thorax -2.45591 -1.46194 4.75779
lowerneck -2.52891 -11.4465 9.16016
upperneck 1.20568 -15.489 -5.14213
head -0.364192 -7.75747 -3.10055
rclavicle 3.55638e-016 -2.01766e-014
rhumerus 18.9621 37.9862 -53.5777
rradius 94.1198
rwrist -4.09672
rhand -19.0724 21.768
rfingers 7.12502
rthumb 7.23525 -8.08828
lclavicle 3.55638e-016 -2.01766e-014
lhumerus 31.2351 25.3525 24.3879
lradius 88.7571
lwrist 1.07483
lhand -52.0245 26.2882
lfingers 7.12502
lthumb -24.531 54.7369
rfemur -0.1848 -6.59284 32.1547
rtibia 19.0466
rfoot -0.831172 27.2031
rtoes 50.194
lfemur -29.1382 -4.82005 8.2096
ltibia 58.7077
lfoot -21.7235 -2.13213
ltoes -31.7497
690
root -0.51577 17.3065 -12.1004 -1.80626 9.07349 -19.1152
lowerback 3.48457 -2.48673 6.17753
upperback -0.572967 -2.84827 7.76429
thorax -2.46111 -1.45086 4.77417
lowerneck -2.21384 -11.2268 9.14878
upperneck 1.08912 -15.1699 -5.33152
head -0.447815 -7.5979 -3.14428
rclavicle -6.39062e-015 -9.83984e-015
rhumerus 19.2939 38.3057 -53.4283
rradius 94.0738
rwrist -4.65731
rhand -19.6268 21.4743
rfingers 7.12502
rthumb 6.70014 -8.39967
lclavicle -6.39062e-015 -9.83984e-015
lhumerus 31.0723 25.3172 24.5899
lradius 88.7234
lwrist 1.09648
lhand -52.1058 25.511
lfingers 7.12502
lthumb -24.6089 53.949
rfemur -0.0115145 -6.51575 32.1271
rtibia 19.0246
rfoot -0.732937 27.3753
rtoes 50.0133
lfemur -28.7093 -4.80675 8.3627
ltibia 58.0658
lfoot -22.2866 -2.70597
ltoes -27.8863
691
root -0.496513 17.3018 -12.0803 -1.9207 8.64066 -19.1098
lowerback 3.60892 -2.44319 6.35203
upperback -0.546471 -2.77061 7.74953
thorax -2.5158 -1.41477 4.66271
lowerneck -2.05932 -11.0362 9.25425
upperneck 1.15452 -14.9038 -5.71011
head -0.474738 -7.4651 -3.28617
rclavicle 4.44074e-014 -3.40916e-014
rhumerus 19.7569 38.6356 -53.2926
rradius 94.1718
rwrist -5.2645
rhand -20.1715 20.7988
rfingers 7.12502
rthumb 6.17424 -9.09127
lclavicle 4.44074e-014 -3.40916e-014
lhumerus 30.7482 25.0877 24.4227
lradius 88.5897
lwrist 0.972897
lhand -52.2663 24.8461
lfingers 7.12502
lthumb -24.7628 53.2631
rfemur 0.23913 -6.23998 32.0587
rtibia 19.0579
rfoot -0.889535 27.415
rtoes 49.9271
lfemur -28.1071 -4.72652 8.43917
ltibia 57.3374
lfoot -22.8133 -2.85469
ltoes -26.5338
